HIERARCHY
ROOT Hips
{
 OFFSET 0.000000 0.000000 0.000000
 CHANNELS 6 Xposition Yposition Zposition Yrotation Xrotation Zrotation
 JOINT Chest
 {
  OFFSET 0.000000 14.374500 -0.011500
  CHANNELS 3 Yrotation Xrotation Zrotation
  JOINT Chest2
  {
   OFFSET 0.000000 9.203400 0.023400
   CHANNELS 3 Yrotation Xrotation Zrotation
   JOINT Chest3
   {
    OFFSET 0.000000 9.162700 0.000000
    CHANNELS 3 Yrotation Xrotation Zrotation
    JOINT Chest4
    {
     OFFSET 0.000000 9.153300 0.000000
     CHANNELS 3 Yrotation Xrotation Zrotation
     JOINT Neck
     {
      OFFSET 0.000000 13.353600 0.000000
      CHANNELS 3 Yrotation Xrotation Zrotation
      JOINT Head
      {
       OFFSET 0.000000 8.573800 0.049400
       CHANNELS 3 Yrotation Xrotation Zrotation
       End Site
       {
        OFFSET 0.000000 16.219200 0.026100
       }
      }
     }
     JOINT RightCollar
     {
      OFFSET -2.497100 8.876100 0.000000
      CHANNELS 3 Yrotation Xrotation Zrotation
      JOINT RightShoulder
      {
       OFFSET -12.289200 0.000000 0.000000
       CHANNELS 3 Yrotation Xrotation Zrotation
       JOINT RightElbow
       {
        OFFSET 0.000000 -28.194900 0.000000
        CHANNELS 3 Yrotation Xrotation Zrotation
        JOINT RightWrist
        {
         OFFSET 0.000000 -23.009700 0.007900
         CHANNELS 3 Yrotation Xrotation Zrotation
         End Site
         {
          OFFSET 0.000000 -17.151500 0.000000
         }
        }
       }
      }
     }
     JOINT LeftCollar
     {
      OFFSET 2.497100 8.876100 0.000000
      CHANNELS 3 Yrotation Xrotation Zrotation
      JOINT LeftShoulder
      {
       OFFSET 12.289200 0.000000 0.000000
       CHANNELS 3 Yrotation Xrotation Zrotation
       JOINT LeftElbow
       {
        OFFSET 0.000000 -28.194900 0.000000
        CHANNELS 3 Yrotation Xrotation Zrotation
        JOINT LeftWrist
        {
         OFFSET 0.000000 -23.009700 0.007900
         CHANNELS 3 Yrotation Xrotation Zrotation
         End Site
         {
          OFFSET 0.000000 -17.151500 0.000000
         }
        }
       }
      }
     }
    }
   }
  }
 }
 JOINT RightHip
 {
  OFFSET -11.777600 0.056700 0.005700
  CHANNELS 3 Yrotation Xrotation Zrotation
  JOINT RightKnee
  {
   OFFSET 0.000000 -39.966000 -0.004200
   CHANNELS 3 Yrotation Xrotation Zrotation
   JOINT RightAnkle
   {
    OFFSET 0.000000 -41.981900 0.027400
    CHANNELS 3 Yrotation Xrotation Zrotation
    JOINT RightToe
    {
     OFFSET 0.000000 -9.910600 16.950100
     CHANNELS 3 Yrotation Xrotation Zrotation
     End Site
     {
      OFFSET 0.000000 -1.461000 6.191600
     }
    }
   }
  }
 }
 JOINT LeftHip
 {
  OFFSET 11.777600 0.056700 0.005700
  CHANNELS 3 Yrotation Xrotation Zrotation
  JOINT LeftKnee
  {
   OFFSET 0.000000 -39.966000 -0.004200
   CHANNELS 3 Yrotation Xrotation Zrotation
   JOINT LeftAnkle
   {
    OFFSET 0.000000 -41.981900 0.027400
    CHANNELS 3 Yrotation Xrotation Zrotation
    JOINT LeftToe
    {
     OFFSET 0.000000 -9.910600 16.950100
     CHANNELS 3 Yrotation Xrotation Zrotation
     End Site
     {
      OFFSET 0.000000 -1.461000 6.191600
     }
    }
   }
  }
 }
}
MOTION
Frames: 8
Frame Time: 0.008333
-6.517506 130.441416 90.956266 174.147602 -52.562970 -2.963179 3.908905 27.954426 2.761407 0.607312 5.158106 0.379034 0.918308 7.935785 0.530141 2.996239 22.666865 2.034295 3.488643 17.238935 1.582467 3.350603 -7.545515 0.865006 2.757790 -3.603086 -0.617286 12.814622 -17.807191 -15.577487 58.633179 -67.029788 -35.747377 42.452114 32.417970 11.561738 -12.254884 -8.512213 -1.053758 -12.607009 -17.650411 16.193069 -39.188072 -59.049752 4.462471 -26.593668 11.338409 4.956693 6.379028 -25.340458 0.054090 -71.025704 87.079914 -73.068987 4.388484 -25.096416 7.905395 0.007708 -0.000438 0.004507 0.473779 -18.359281 -1.685497 139.493871 72.732931 150.752830 1.920319 -14.225970 -10.039429 0.005706 0.009414 0.003337
-6.518203 130.441202 90.968956 174.136306 -52.635807 -2.958382 3.903086 27.957989 2.730577 0.592376 5.104371 0.347157 0.935670 7.988232 0.547907 2.991389 22.667698 2.009073 3.475847 17.264549 1.632492 3.305402 -7.519826 0.934979 2.930351 -3.721380 -0.555358 13.191103 -18.185578 -15.733728 57.959798 -67.088601 -34.890876 43.395646 32.423960 13.908714 -12.387134 -8.617333 -1.090698 -13.163937 -17.843838 16.489222 -39.410637 -58.647368 4.749735 -26.512788 11.808477 3.929610 6.370085 -25.275785 0.063173 -70.789140 87.077877 -72.833502 4.396383 -25.095405 7.898652 0.005263 0.000410 0.003078 0.444401 -18.288080 -1.675189 139.484296 72.740843 150.714986 1.928697 -14.211524 -10.031324 0.003344 0.011671 0.001955
-6.517337 130.451506 90.973271 174.123544 -52.757191 -2.958113 3.906205 28.013322 2.708227 0.587844 5.086757 0.332831 0.941300 8.005489 0.549172 2.988113 22.668823 1.985564 3.496662 17.304372 1.689287 3.236965 -7.518533 0.997990 3.100379 -3.852039 -0.485890 13.545175 -18.551311 -15.888353 57.380756 -67.119097 -34.090638 44.454663 32.454777 16.155754 -12.510027 -8.709531 -1.122428 -13.619662 -18.062073 16.689840 -39.455267 -58.208060 4.906299 -26.465299 12.327328 3.103869 6.352419 -25.158331 0.085948 -70.502135 87.076657 -72.552349 4.408710 -25.082331 7.888741 0.001910 -0.005326 0.001116 0.422553 -18.167976 -1.657709 139.474406 72.749458 150.680803 1.930277 -14.180494 -10.026660 -0.001818 0.001275 -0.001063
-6.518708 130.451353 90.984527 174.120864 -52.822037 -2.962421 3.898474 28.016834 2.678467 0.588184 5.087449 0.328098 0.941661 8.006596 0.541639 3.005459 22.696267 1.999168 3.427243 17.283638 1.707034 3.217797 -7.494555 1.056745 3.249677 -4.020526 -0.440565 13.880173 -18.891724 -16.029727 57.166016 -67.059900 -33.637091 45.758617 32.556028 18.379691 -12.633857 -8.819267 -1.172041 -13.952981 -18.308646 16.793533 -39.350977 -57.742190 4.937773 -26.532737 12.870132 2.414076 6.331358 -25.098833 0.098971 -70.255171 87.074451 -72.310553 4.417296 -25.076860 7.879420 0.002578 -0.002016 0.001507 0.396216 -18.109623 -1.650844 139.400252 72.774255 150.609865 1.918804 -14.123700 -10.050393 0.006860 -0.006189 0.004011
-6.520936 130.449473 90.996103 174.118548 -52.873790 -2.965982 3.894977 28.010915 2.650851 0.589021 5.088864 0.323687 0.942821 8.008706 0.534724 2.994751 22.685986 1.960911 3.389800 17.291230 1.774165 3.191005 -7.479971 1.118237 3.413441 -4.158737 -0.345566 14.195052 -19.205036 -16.147204 57.558641 -66.823781 -33.787118 47.253949 32.743802 20.593571 -12.722491 -8.865933 -1.184254 -14.154132 -18.578670 16.803039 -39.161890 -57.271783 4.884893 -26.729841 13.387759 1.769045 6.305902 -25.049028 0.108698 -70.014609 87.070264 -72.075245 4.419770 -25.082436 7.873143 0.003367 0.001189 0.001968 0.375066 -18.062556 -1.642960 139.358039 72.781618 150.557558 1.911966 -14.101291 -10.057921 0.006859 -0.004931 0.004010
-6.523758 130.443553 91.009662 174.116915 -52.900275 -2.970449 3.896097 27.985001 2.626201 0.590737 5.090398 0.319793 0.946262 8.033002 0.549343 2.987513 22.675924 1.934183 3.346693 17.279534 1.814640 3.134681 -7.485865 1.186870 3.563614 -4.314991 -0.279295 14.496373 -19.492623 -16.230900 58.544264 -66.351007 -34.553488 48.751922 32.972225 22.740663 -12.800128 -8.924745 -1.216783 -14.230424 -18.863899 16.727870 -38.945622 -56.813448 4.793135 -27.025042 13.824137 1.076461 6.283190 -25.024443 0.110345 -69.807030 87.064586 -71.872927 4.448998 -25.095929 7.863782 0.009244 0.006355 0.005406 0.360098 -18.045785 -1.637513 139.323140 72.780671 150.517987 1.900348 -14.079444 -10.056878 0.006705 0.003163 0.003921
-6.525264 130.443141 91.018070 174.120489 -52.948527 -2.983884 3.904045 27.987262 2.610807 0.591301 5.101085 0.325651 0.947710 8.042511 0.555193 2.989785 22.677324 1.925867 3.289607 17.252287 1.840253 3.068882 -7.501672 1.260339 3.705343 -4.468966 -0.233366 14.799700 -19.753695 -16.268959 59.849514 -65.666645 -35.704544 50.129279 33.170861 24.744088 -12.863165 -8.976281 -1.261263 -14.192167 -19.158675 16.583515 -38.717946 -56.378102 4.676966 -27.383233 14.134641 0.301531 6.268854 -24.973383 0.121456 -69.628517 87.049144 -71.687506 4.457260 -25.112557 7.873335 0.015512 0.001871 0.009070 0.334681 -18.019274 -1.633575 139.316259 72.764148 150.499723 1.901356 -14.042614 -10.062337 0.002455 -0.003546 0.001435
-6.525141 130.448600 91.021110 174.115752 -53.019590 -2.996566 3.923413 28.035959 2.619601 0.590745 5.111043 0.333331 0.959303 7.976463 0.479624 3.013276 22.688011 1.914814 3.251971 17.254444 1.951654 2.995184 -7.526323 1.340328 3.833046 -4.571194 -0.110951 15.113200 -19.985279 -16.258098 61.157775 -64.856197 -36.958241 51.331480 33.283985 26.531709 -12.924706 -8.947233 -1.240600 -14.045371 -19.455810 16.384206 -38.488290 -55.972911 4.533592 -27.745614 14.304654 -0.510838 6.239076 -24.899233 0.138672 -69.372880 87.046116 -71.436253 4.476724 -25.111453 7.863721 0.016108 -0.002359 0.009418 0.330098 -17.954290 -1.620222 139.299682 72.761112 150.486814 1.896029 -14.014561 -10.064136 0.001562 -0.010397 0.000913
